<svg xmlns="http://www.w3.org/2000/svg" enable-background="new 0 0 1000 1000" viewBox="0 0 1000 1000" id="sport-bicycle"><rect width="1000" height="1000" fill="#eeeff1"></rect><g><ellipse cx="262.223" cy="775.476" fill="#525456" rx="121.5" ry="11.382"></ellipse><ellipse cx="803.399" cy="783.858" fill="#525456" rx="121.5" ry="11.382"></ellipse><g><g><path fill="#a9a8a9" d="M316.148,510.881l-23.564-10.988c-1.502-0.7-2.151-2.485-1.451-3.987v0
				c0.7-1.502,2.485-2.151,3.987-1.451l23.564,10.988c1.502,0.7,2.151,2.485,1.451,3.987l0,0
				C319.434,510.932,317.649,511.582,316.148,510.881z"></path><path fill="#a9a8a9" d="M318.683,505.444l-23.564-10.988c-1.502-0.7-2.151-2.485-1.451-3.987l0,0
				c0.7-1.502,2.485-2.151,3.987-1.451l23.564,10.988c1.502,0.7,2.151,2.485,1.451,3.987v0
				C321.97,505.494,320.185,506.144,318.683,505.444z"></path><path fill="#a9a8a9" d="M321.219,500.006l-23.564-10.988c-1.502-0.7-2.151-2.485-1.451-3.987l0,0
				c0.7-1.502,2.485-2.151,3.987-1.451l23.564,10.988c1.502,0.7,2.151,2.485,1.451,3.987l0,0
				C324.506,500.056,322.721,500.706,321.219,500.006z"></path></g></g><path fill="#23d497" d="M589.277,495.67l10.341,20.209c3.123,6.104-1.542,13.298-8.389,12.936l-19.329-1.021
		L589.277,495.67z"></path><rect width="21.838" height="14.834" x="627.353" y="594.761" fill="#191919" transform="rotate(-30 638.235 602.2)"></rect><rect width="21.838" height="14.834" x="627.353" y="594.761" fill="none" stroke="#151515" stroke-linecap="round" stroke-linejoin="round" stroke-miterlimit="10" stroke-width="4" transform="rotate(-30 638.235 602.2)"></rect><path fill="none" stroke="#151515" stroke-linecap="round" stroke-linejoin="round" stroke-miterlimit="10" stroke-width="4" d="
		M589.277,495.67l10.341,20.209c3.123,6.104-1.542,13.298-8.389,12.936l-19.329-1.021L589.277,495.67z"></path><polygon fill="#242424" points="568.07 484.751 686.415 332.66 705.066 335.874 586.875 501.561"></polygon><polygon fill="#1a1a1a" points="696.559 334.408 581.042 496.346 586.875 501.561 705.066 335.874"></polygon><polygon fill="#1a1a1a" points="678.15 343.283 692.5 350.75 697 340.167 690.333 334.408"></polygon><polygon fill="none" stroke="#151515" stroke-linecap="round" stroke-linejoin="round" stroke-miterlimit="10" stroke-width="4" points="568.07 484.751 686.415 332.66 705.066 335.874 586.875 501.561"></polygon><path fill="#191919" d="M760.203,308.484l-0.966,0.175c-21.562,3.904-43.503,4.736-65.264,2.476
		l-35.101-2.011c-6.614-0.379-13.008,2.636-17.26,8.139l-8.235,10.656c-1.127,1.459-0.44,3.693,1.27,4.127
		c0,0,41.489,0.518,78.432,17.482c3.537,1.624,7.505,1.686,10.952-0.152c12.671-6.756,41.951-22.792,41.951-22.792
		c3.61-1.993,5.605-6.434,4.62-10.908C769.506,310.702,764.857,307.641,760.203,308.484z"></path><path fill="#242424" d="M634.646,332.046c0,0,0.592,0.008,1.685,0.049l5.28-6.832
		c4.253-5.503,10.646-8.518,17.26-8.139l39.922,6.832c21.761,2.26,35.706,0.544,60.443-7.298l0.966-0.175
		c4.092-0.741,8.178,1.537,9.85,5.479c0.794-1.897,1.033-4.087,0.549-6.286c-1.096-4.974-5.745-8.035-10.399-7.192l-0.966,0.175
		c-21.562,3.904-43.503,4.736-65.264,2.476l-35.101-2.011c-6.614-0.379-13.008,2.636-17.26,8.139l-8.235,10.656
		C632.249,329.378,632.937,331.612,634.646,332.046z"></path><path fill="none" stroke="#151515" stroke-linecap="round" stroke-linejoin="round" stroke-miterlimit="10" stroke-width="4" d="
		M760.203,308.484l-0.966,0.175c-21.562,3.904-43.503,4.736-65.264,2.476l-35.101-2.011c-6.614-0.379-13.008,2.636-17.26,8.139
		l-8.235,10.656c-1.127,1.459-0.44,3.693,1.27,4.127c0,0,41.489,0.518,78.432,17.482c3.537,1.624,7.505,1.686,10.952-0.152
		c12.671-6.756,41.951-22.792,41.951-22.792c3.61-1.993,5.605-6.434,4.62-10.908C769.506,310.702,764.857,307.641,760.203,308.484z"></path><path fill="#242424" d="M316.102,529.23c4.575-10.071-0.409-17.969-10.368-22.802
		c0,0-0.097-0.054-0.11-0.059c-0.017-0.008-2.51-1.089-2.783-1.222c-10.423-5.15-20.099-1.675-24.896,8.961
		c-21.511,47.771-38.968,97.278-52.18,147.998c7.097,1.849,14.193,3.697,21.29,5.546c10.408-39.957,23.514-79.143,39.22-117.289
		c2.079-5.055,6.883-8.515,12.233-8.584C306.271,541.659,312.698,536.74,316.102,529.23z"></path><line x1="245.5" x2="282" y1="617.5" y2="521.833" fill="none" stroke="#fff" stroke-linecap="round" stroke-linejoin="round" stroke-miterlimit="10" stroke-width="2" opacity=".46"></line><path fill="#191919" d="M314.695,513.248c-0.195,1.805-0.713,3.698-1.612,5.678
		c-3.404,7.51-9.831,12.429-17.595,12.549c-5.349,0.069-10.153,3.529-12.233,8.584c-15.706,38.146-28.813,77.332-39.22,117.289
		c-5.301-1.381-10.602-2.762-15.902-4.142c-0.803,2.963-1.595,5.929-2.369,8.901c7.097,1.849,14.193,3.697,21.29,5.546
		c10.408-39.957,23.514-79.143,39.221-117.289c2.079-5.055,6.883-8.515,12.233-8.584c7.764-0.12,14.191-5.039,17.595-12.549
		C318.932,522.999,318.097,517.604,314.695,513.248z" opacity=".92"></path><path fill="none" stroke="#151515" stroke-linecap="round" stroke-linejoin="round" stroke-miterlimit="10" stroke-width="4" d="
		M316.102,529.23c4.575-10.071-0.409-17.969-10.368-22.802c0,0-0.097-0.054-0.11-0.059c-0.017-0.008-2.51-1.089-2.783-1.222
		c-10.423-5.15-20.099-1.675-24.896,8.961c-21.511,47.771-38.968,97.278-52.18,147.998c7.097,1.849,14.193,3.697,21.29,5.546
		c10.408-39.957,23.514-79.143,39.22-117.289c2.079-5.055,6.883-8.515,12.233-8.584C306.271,541.659,312.698,536.74,316.102,529.23z
		"></path><path fill="#25ba81" d="M771.841,688.426l-235.993-0.453c-23.005-0.484-40.701-20.496-38.367-43.386v0
		c2.334-22.891,23.704-38.92,46.333-34.752l232.597,33.766L771.841,688.426z"></path><line x1="550.054" x2="771" y1="623.942" y2="648.8" fill="none" stroke="#151515" stroke-linecap="round" stroke-linejoin="round" stroke-miterlimit="10" stroke-width="3"></line><path fill="#31fe9f" d="M562.836,663.181c-23.005-0.484-40.701-20.495-38.367-43.386v0
		c0.331-3.252,1.059-6.359,2.108-9.295c-15.297,4.069-27.376,17.207-29.097,34.088v0c-2.334,22.891,15.363,42.902,38.367,43.386
		l235.993,0.453l2.532-24.839L562.836,663.181z"></path><g><g><g><path fill="#23d497" d="M525.426,614.365c0.325-1.317,0.702-2.61,1.15-3.867
					c-0.431,0.115-0.859,0.239-1.286,0.368C525.283,612.045,525.331,613.211,525.426,614.365z"></path></g><g><path fill="#23d497" d="M772.859,675.714l-235.993-0.453c-20.539-0.432-36.833-16.434-38.432-36.149
					c-0.437,1.775-0.763,3.601-0.954,5.475v0c-2.334,22.891,15.363,42.902,38.367,43.386l235.993,0.453l2.532-24.839l-0.277-0.001
					L772.859,675.714z"></path></g></g></g><path fill="none" stroke="#151515" stroke-linecap="round" stroke-linejoin="round" stroke-miterlimit="10" stroke-width="4" d="
		M562.836,663.181c-23.005-0.484-40.701-20.495-38.367-43.386v0c0.331-3.252,1.059-6.359,2.108-9.295
		c-15.297,4.069-27.376,17.207-29.097,34.088v0c-2.334,22.891,15.363,42.902,38.367,43.386l235.993,0.453l2.532-24.839
		L562.836,663.181z"></path><path fill="none" stroke="#151515" stroke-linecap="round" stroke-linejoin="round" stroke-miterlimit="10" stroke-width="4" d="
		M771.841,688.426l-235.993-0.453c-23.005-0.484-40.701-20.496-38.367-43.386v0c2.334-22.891,23.704-38.92,46.333-34.752
		l232.597,33.766L771.841,688.426z"></path><g><g><path fill="none" stroke="#151515" stroke-linecap="round" stroke-linejoin="round" stroke-miterlimit="10" stroke-width="4" d="
				M316.148,510.881l-23.564-10.988c-1.502-0.7-2.151-2.485-1.451-3.987v0c0.7-1.502,2.485-2.151,3.987-1.451l23.564,10.988
				c1.502,0.7,2.151,2.485,1.451,3.987l0,0C319.434,510.932,317.649,511.582,316.148,510.881z"></path><path fill="none" stroke="#151515" stroke-linecap="round" stroke-linejoin="round" stroke-miterlimit="10" stroke-width="4" d="
				M318.683,505.444l-23.564-10.988c-1.502-0.7-2.151-2.485-1.451-3.987l0,0c0.7-1.502,2.485-2.151,3.987-1.451l23.564,10.988
				c1.502,0.7,2.151,2.485,1.451,3.987v0C321.97,505.494,320.185,506.144,318.683,505.444z"></path><path fill="none" stroke="#151515" stroke-linecap="round" stroke-linejoin="round" stroke-miterlimit="10" stroke-width="4" d="
				M321.219,500.006l-23.564-10.988c-1.502-0.7-2.151-2.485-1.451-3.987l0,0c0.7-1.502,2.485-2.151,3.987-1.451l23.564,10.988
				c1.502,0.7,2.151,2.485,1.451,3.987l0,0C324.506,500.056,322.721,500.706,321.219,500.006z"></path></g></g><path fill="#31fe9f" d="M324.428,494.737l-24.599-11.471c-1.716-0.8-2.459-2.841-1.659-4.557l43.59-93.478
		c0.8-1.716,2.841-2.459,4.557-1.659l24.599,11.471c1.716,0.8,2.459,2.841,1.659,4.557l-43.59,93.478
		C328.185,494.795,326.145,495.538,324.428,494.737z"></path><path fill="#23d497" d="M370.916,395.044l-24.599-11.471c-0.216-0.101-0.438-0.177-0.661-0.23l14.518,6.77
		c1.716,0.8,2.459,2.841,1.659,4.557l-43.59,93.478c-0.699,1.5-2.346,2.256-3.896,1.888l10.081,4.701
		c1.716,0.8,3.757,0.058,4.557-1.659l43.59-93.478C373.375,397.884,372.633,395.844,370.916,395.044z"></path><path fill="none" stroke="#151515" stroke-linecap="round" stroke-linejoin="round" stroke-miterlimit="10" stroke-width="4" d="
		M324.428,494.737l-24.599-11.471c-1.716-0.8-2.459-2.841-1.659-4.557l43.59-93.478c0.8-1.716,2.841-2.459,4.557-1.659
		l24.599,11.471c1.716,0.8,2.459,2.841,1.659,4.557l-43.59,93.478C328.185,494.795,326.145,495.538,324.428,494.737z"></path><path fill="#31fe9f" d="M557.784,634.491c-1.692-9.014-2.58-18.297-2.58-27.781
		c0-55.698,41.428-114.65,41.428-114.65L572.9,472.698l-20.8,20.972c-14.227,15.714-40.86,18.576-59.436,8.362l-140.102-62.877
		l-19.052,38.939L446.1,543.707c35.947,24.184,58.063,64.186,59.427,107.489l0.217,3.291c1.009,15.276,14.387,26.732,29.636,25.379
		h0c15.685-1.393,26.938-15.737,24.556-31.303L557.784,634.491z"></path><g><g><g><path fill="#23d497" d="M519.567,653.939l-7.123-3.7C510.911,601.548,516.117,562,455.623,526
					L338.85,467.179l-5.34,10.915L446.1,543.707c35.947,24.184,55.753,57.293,59.034,100.33l2.372,1.67
					c0.725,10.984,7.846,19.994,17.46,23.685C521.9,664.978,519.948,659.703,519.567,653.939z"></path></g></g></g><g><g><g><path fill="#23d497" d="M557.784,634.491c-1.692-9.014-2.58-18.297-2.58-27.781
					c0-55.698,41.428-114.65,41.428-114.65l-5.272-4.301c-4.036,5.9-52.045,59.282-52.045,111.945
					c0,9.484-7.921,25.774-6.229,34.788l16.294,4.638c2.382,15.566-8.871,29.91-24.556,31.303h0
					c-5.263,0.467-10.303-0.593-14.688-2.807c5.331,8.133,14.852,13.165,25.246,12.242h0c15.685-1.393,26.938-15.737,24.556-31.303
					L557.784,634.491z"></path></g><g><path fill="#23d497" d="M435.543,534.273l-100.784-58.732l-1.25,2.554L446.1,543.707
					c3.154,2.122,6.194,4.372,9.13,6.728C449.244,544.494,442.67,539.068,435.543,534.273z"></path></g></g></g><g opacity=".83"><g><g><path fill="#86fcbe" d="M501.853,623.942c2.129,8.852,3.381,17.976,3.674,27.254l0.217,3.291
					c0.411,6.233,2.883,11.828,6.7,16.179C511.475,654.429,507.842,638.669,501.853,623.942z"></path></g><g><path fill="#86fcbe" d="M498.557,511.537c20.333,11.181,45.736,4.297,61.31-12.904l18.002-21.88
					l-4.969-4.054l-20.8,20.972c-14.227,15.714-40.86,18.576-59.436,8.362l-140.102-62.877l-2.752,5.625L498.557,511.537z"></path></g></g></g><polygon fill="#23d497" points="345.833 480.833 363.462 444.047 348.667 437.5 330.333 474.833"></polygon><path fill="none" stroke="#151515" stroke-linecap="round" stroke-linejoin="round" stroke-miterlimit="10" stroke-width="4" d="
		M557.784,634.491c-1.692-9.014-2.58-18.297-2.58-27.781c0-55.698,41.428-114.65,41.428-114.65L572.9,472.698l-20.8,20.972
		c-14.227,15.714-40.86,18.576-59.436,8.362l-140.102-62.877l-19.052,38.939L446.1,543.707
		c35.947,24.184,58.063,64.186,59.427,107.489l0.217,3.291c1.009,15.276,14.387,26.732,29.636,25.379h0
		c15.685-1.393,26.938-15.737,24.556-31.303L557.784,634.491z"></path><path fill="#242424" d="M380.514,347.982l25.296-143.461l-22.943-4.046l-27.436,155.6l-0.679,3.85
		c-0.818,4.637,1.19,9.114,4.804,10.714l16.528,7.318c3.804,1.684,7.822-2.794,6.668-7.435
		C380.961,363.33,379.388,354.363,380.514,347.982z"></path><path fill="#1a1a1a" d="M380.514,347.982l25.296-143.461l-22.943-4.046l-0.829,4.699l14.262,2.515
		L371.003,351.15c-1.125,6.381,0.448,15.348,2.237,22.541c0.259,1.042,0.246,2.071,0.045,3.029l2.797,1.239
		c3.804,1.684,7.822-2.794,6.668-7.435C380.961,363.33,379.388,354.363,380.514,347.982z"></path><path fill="none" stroke="#151515" stroke-linecap="round" stroke-linejoin="round" stroke-miterlimit="10" stroke-width="4" d="
		M380.514,347.982l25.296-143.461l-22.943-4.046l-27.436,155.6l-0.679,3.85c-0.818,4.637,1.19,9.114,4.804,10.714l16.528,7.318
		c3.804,1.684,7.822-2.794,6.668-7.435C380.961,363.33,379.388,354.363,380.514,347.982z"></path><path fill="#242424" d="M370.93,395.277l-22.258-8.976c-4.61-1.859-6.84-7.103-4.981-11.713l0,0
		c1.859-4.61,7.103-6.84,11.713-4.981l22.258,8.976c4.61,1.859,6.84,7.103,4.981,11.713l0,0
		C380.784,394.906,375.54,397.136,370.93,395.277z"></path><path fill="#1a1a1a" d="M377.662,378.584l-7.84-3.162c2.445,2.476,3.331,6.259,1.946,9.692
		c-1.859,4.61-7.103,6.84-11.713,4.981l-14.418-5.814c0.838,0.849,1.858,1.547,3.035,2.021l22.258,8.976
		c4.61,1.859,9.854-0.371,11.713-4.981C384.502,385.687,382.272,380.443,377.662,378.584z"></path><path fill="none" stroke="#151515" stroke-linecap="round" stroke-linejoin="round" stroke-miterlimit="10" stroke-width="4" d="
		M370.93,395.277l-22.258-8.976c-4.61-1.859-6.84-7.103-4.981-11.713l0,0c1.859-4.61,7.103-6.84,11.713-4.981l22.258,8.976
		c4.61,1.859,6.84,7.103,4.981,11.713l0,0C380.784,394.906,375.54,397.136,370.93,395.277z"></path><ellipse cx="394.032" cy="209.481" fill="#151515" rx="12.81" ry="16.995" transform="rotate(-27.994 394.01 209.464)"></ellipse><ellipse cx="394.032" cy="208.863" fill="none" stroke="#151515" stroke-linecap="round" stroke-linejoin="round" stroke-miterlimit="10" stroke-width="4" rx="12.81" ry="16.995" transform="rotate(-27.994 394.01 208.846)"></ellipse><path fill="#31fe9f" d="M624.187,549.639c-1.953-3.22-4.298-6.192-6.981-8.834
		c-5.175-5.096-10.348-10.19-15.421-15.336l0.06-0.034l-3.867-6.698c-1.885-3.264-6.058-4.382-9.322-2.498
		c-3.264,1.885-4.382,6.058-2.498,9.322l3.867,6.698l0.06-0.034c1.92,6.967,3.745,13.993,5.571,21.023
		c0.947,3.645,2.348,7.162,4.16,10.463c8.639,15.739,7.323,12.573,18.576,29.509l22.064-12.739
		C631.414,562.267,633.498,564.99,624.187,549.639z"></path><path fill="#23d497" d="M592.144,522.57l3.867,6.698l-0.06,0.034
		c5.073,5.146,10.246,10.24,15.421,15.336c2.683,2.642,5.028,5.614,6.981,8.834c9.247,15.246,7.26,12.675,16.089,30.48l6.013-3.471
		c-9.041-18.213-6.956-15.491-16.268-30.842c-1.953-3.22-4.298-6.192-6.981-8.834c-5.175-5.096-10.348-10.19-15.421-15.336
		l0.06-0.034l-3.867-6.698c-1.885-3.264-6.058-4.382-9.322-2.498c-1.228,0.709-2.152,1.742-2.727,2.929
		C588.39,519.059,590.826,520.288,592.144,522.57z" opacity=".95"></path><path fill="none" stroke="#151515" stroke-linecap="round" stroke-linejoin="round" stroke-miterlimit="10" stroke-width="4" d="
		M624.187,549.639c-1.953-3.22-4.298-6.192-6.981-8.834c-5.175-5.096-10.348-10.19-15.421-15.336l0.06-0.034l-3.867-6.698
		c-1.885-3.264-6.058-4.382-9.322-2.498c-3.264,1.885-4.382,6.058-2.498,9.322l3.867,6.698l0.06-0.034
		c1.92,6.967,3.745,13.993,5.571,21.023c0.947,3.645,2.348,7.162,4.16,10.463c8.639,15.739,7.323,12.573,18.576,29.509
		l22.064-12.739C631.414,562.267,633.498,564.99,624.187,549.639z"></path><path fill="#1fcc8a" d="M645.951,593.871c-5.576,4.641-11.905,8.295-18.712,10.804
		c-3.247,1.049-7.3-0.656-8.883-3.398l0,0c-1.583-2.741-1.033-7.103,1.499-9.391c5.576-4.641,11.905-8.295,18.712-10.804
		c3.248-1.049,7.3,0.656,8.883,3.398l0,0C649.032,587.221,648.483,591.583,645.951,593.871z"></path><path fill="none" stroke="#151515" stroke-linecap="round" stroke-linejoin="round" stroke-miterlimit="10" stroke-width="4" d="
		M645.951,593.871c-5.576,4.641-11.905,8.295-18.712,10.804c-3.247,1.049-7.3-0.656-8.883-3.398l0,0
		c-1.583-2.741-1.033-7.103,1.499-9.391c5.576-4.641,11.905-8.295,18.712-10.804c3.248-1.049,7.3,0.656,8.883,3.398l0,0
		C649.032,587.221,648.483,591.583,645.951,593.871z"></path><path fill="#191919" d="M638.237,622.542c-0.312,1.167-0.494,2.387-0.494,3.652
		c0,7.806,6.328,14.134,14.134,14.134c7.679,0,13.913-6.127,14.115-13.756L638.237,622.542z"></path><path fill="none" stroke="#151515" stroke-linecap="round" stroke-linejoin="round" stroke-miterlimit="10" stroke-width="4" d="
		M638.237,622.542c-0.312,1.167-0.494,2.387-0.494,3.652c0,7.806,6.328,14.134,14.134,14.134c7.679,0,13.913-6.127,14.115-13.756
		L638.237,622.542z"></path><circle cx="533.086" cy="651.459" r="28.917" fill="#242424"></circle><circle cx="533.086" cy="651.459" r="28.917" fill="none" stroke="#151515" stroke-linecap="round" stroke-linejoin="round" stroke-miterlimit="10" stroke-width="4"></circle><circle cx="533.086" cy="651.459" r="28.917" fill="none" stroke="#151515" stroke-linecap="round" stroke-linejoin="round" stroke-miterlimit="10" stroke-width="4"></circle><circle cx="533.086" cy="651.459" r="16.968" fill="#191919" opacity=".92"></circle><path fill="#191919" d="M655.456,631.311L655.456,631.311c-3.047,1.759-6.942,0.715-8.701-2.331
		l-10.018-17.352l11.032-6.369l10.018,17.352C659.546,625.657,658.502,629.552,655.456,631.311z"></path><path fill="none" stroke="#151515" stroke-linecap="round" stroke-linejoin="round" stroke-miterlimit="10" stroke-width="4" d="
		M655.456,631.311L655.456,631.311c-3.047,1.759-6.942,0.715-8.701-2.331l-10.018-17.352l11.032-6.369l10.018,17.352
		C659.546,625.657,658.502,629.552,655.456,631.311z"></path><circle cx="652.875" cy="626" r="4.875" fill="none" stroke="#151515" stroke-linecap="round" stroke-linejoin="round" stroke-miterlimit="10" stroke-width="4"></circle><circle cx="591.917" cy="521.833" r="4.167" fill="none" stroke="#151515" stroke-linecap="round" stroke-linejoin="round" stroke-miterlimit="10" stroke-width="4"></circle><path fill="#191919" d="M541.55,636.75c0,0-6.05-13.31-1.383-43.31c4.667-30,9.887-43.31,9.887-43.31
		s-7.135,1.87-16.968,26.203c-9.895,24.485-10.836,60.417-10.836,60.417H541.55z"></path><path fill="none" stroke="#151515" stroke-linecap="round" stroke-linejoin="round" stroke-miterlimit="10" stroke-width="4" d="
		M541.526,636.753l0.023-0.003c0,0-6.05-13.31-1.383-43.31c4.667-30,9.887-43.31,9.887-43.31s-7.135,1.87-16.968,26.203
		c-9.024,22.331-10.6,56.247-10.807,62.045c-3.763,3.112-6.161,7.816-6.161,13.081c0,9.371,7.597,16.968,16.968,16.968
		s16.968-7.597,16.968-16.968C550.054,645.164,546.617,639.682,541.526,636.753z"></path><path fill="#242424" d="M535.132,659.998l-86.402-2.438c-2.444-0.069-4.396-2.53-4.396-5.542l0,0
		c0-3.012,1.952-5.473,4.396-5.542l86.402-2.438c2.532-0.077,4.618,2.431,4.618,5.551v4.857
		C539.75,657.568,537.664,660.075,535.132,659.998z"></path><path fill="none" stroke="#151515" stroke-linecap="round" stroke-linejoin="round" stroke-miterlimit="10" stroke-width="4" d="
		M535.132,659.998l-86.402-2.438c-2.444-0.069-4.396-2.53-4.396-5.542l0,0c0-3.012,1.952-5.473,4.396-5.542l86.402-2.438
		c2.532-0.077,4.618,2.431,4.618,5.551v4.857C539.75,657.568,537.664,660.075,535.132,659.998z"></path><line x1="528.875" x2="539.75" y1="652.019" y2="652.019" fill="none" stroke="#151515" stroke-linecap="round" stroke-linejoin="round" stroke-miterlimit="10" stroke-width="4"></line><path fill="#161616" d="M456.884,673.309h-0.435c-3.746,0-6.782-3.037-6.782-6.782v-29.016
		c0-3.746,3.037-6.782,6.782-6.782h0.435c3.746,0,6.782,3.037,6.782,6.782v29.016C463.667,670.272,460.63,673.309,456.884,673.309z"></path><path fill="none" stroke="#151515" stroke-linecap="round" stroke-linejoin="round" stroke-miterlimit="10" stroke-width="4" d="
		M456.884,673.309h-0.435c-3.746,0-6.782-3.037-6.782-6.782v-29.016c0-3.746,3.037-6.782,6.782-6.782h0.435
		c3.746,0,6.782,3.037,6.782,6.782v29.016C463.667,670.272,460.63,673.309,456.884,673.309z"></path><line x1="628.319" x2="645.24" y1="407.322" y2="419.742" fill="none" stroke="#151515" stroke-linecap="round" stroke-linejoin="round" stroke-miterlimit="10" stroke-width="4"></line><line x1="645.24" x2="651" y1="421.167" y2="425.333" fill="none" stroke="#151515" stroke-linecap="round" stroke-linejoin="round" stroke-miterlimit="10" stroke-width="6"></line><line x1="641.553" x2="680.5" y1="401.874" y2="350.75" fill="none" stroke="#fff" stroke-linecap="round" stroke-linejoin="round" stroke-miterlimit="10" stroke-width="3" opacity=".46"></line><path fill="none" stroke="#fff" stroke-linecap="round" stroke-linejoin="round" stroke-miterlimit="10" stroke-width="3" d="
		M641.553,401.874"></path><line x1="587.75" x2="629.667" y1="472.5" y2="417.111" fill="none" stroke="#fff" stroke-linecap="round" stroke-linejoin="round" stroke-miterlimit="10" stroke-width="3" opacity=".46"></line><rect width="21.85" height="4.856" x="341.478" y="225.829" fill="none" stroke="#151515" stroke-linecap="round" stroke-linejoin="round" stroke-miterlimit="10" stroke-width="6" transform="rotate(-24.294 352.445 228.278)"></rect><path fill="#151515" d="M390.955,217.513l-25.512,11.517l-4.994-11.064l25.512-11.517
		c2.517-1.136,5.478-0.017,6.614,2.5l0.88,1.949C394.591,213.415,393.472,216.377,390.955,217.513z"></path><path fill="none" stroke="#151515" stroke-linecap="round" stroke-linejoin="round" stroke-miterlimit="10" stroke-width="4" d="
		M390.955,217.513l-25.512,11.517l-4.994-11.064l25.512-11.517c2.517-1.136,5.478-0.017,6.614,2.5l0.88,1.949
		C394.591,213.415,393.472,216.377,390.955,217.513z"></path><ellipse cx="340.484" cy="234.092" fill="#5e5e5e" rx="5.748" ry="5.835"></ellipse><ellipse cx="340.484" cy="234.092" fill="none" stroke="#151515" stroke-linecap="round" stroke-linejoin="round" stroke-miterlimit="10" stroke-width="4" rx="7.484" ry="7.598"></ellipse><ellipse cx="340.484" cy="234.092" fill="#151515" rx="7.484" ry="7.598"></ellipse><rect width="25.861" height="5.747" x="401.935" y="197.017" fill="none" stroke="#151515" stroke-linecap="round" stroke-linejoin="round" stroke-miterlimit="10" stroke-width="7" transform="rotate(-24.294 414.916 199.907)"></rect><ellipse cx="399.47" cy="203.643" fill="#5e5e5e" rx="4.735" ry="4.807"></ellipse><ellipse cx="399.47" cy="203.643" fill="none" stroke="#151515" stroke-linecap="round" stroke-linejoin="round" stroke-miterlimit="10" stroke-width="4" rx="6.165" ry="6.259"></ellipse><ellipse cx="399.47" cy="203.643" fill="#151515" rx="6.165" ry="6.259"></ellipse><ellipse cx="426.142" cy="193.252" fill="#151515" rx="8.858" ry="8.993"></ellipse><line x1="363.359" x2="378" y1="220" y2="213.333" fill="none" stroke="#fff" stroke-linecap="round" stroke-linejoin="round" stroke-miterlimit="10" stroke-width="2" opacity=".46"></line><line x1="411.78" x2="414.866" y1="199.89" y2="198.485" fill="none" stroke="#fff" stroke-linecap="round" stroke-linejoin="round" stroke-miterlimit="10" stroke-width="2" opacity=".46"></line><path fill="none" stroke="#fff" stroke-linecap="round" stroke-linejoin="round" stroke-miterlimit="10" stroke-width="2" d="
		M363.672,343.862l-1.297,7.638c0,0-1.125,7.25-0.375,11s3.833,4.875,3.833,4.875" opacity=".46"></path><line x1="383.299" x2="364.833" y1="228.257" y2="336.333" fill="none" stroke="#fff" stroke-linecap="round" stroke-linejoin="round" stroke-miterlimit="10" stroke-width="2" opacity=".46"></line><path fill="none" stroke="#fff" stroke-linecap="round" stroke-linejoin="round" stroke-miterlimit="10" stroke-width="2" d="M285.667 515.583c0 0 2.97-5.667 7.72-5.667M353.25 374.125c0 0-3.125-.015-4.063 2.875-.438 1.35-.052 3.14 1.292 4.396" opacity=".46"></path><path fill="none" stroke="#fff" stroke-linecap="round" stroke-linejoin="round" stroke-miterlimit="10" stroke-width="3" d="M599.25 540.5c0 0 2 9.542 3.5 13.771 1.5 4.229 14.717 25.229 14.717 25.229M623.5 598.667c0 0-.583-2.5 2.833-5.227 1.934-1.544 11.41-7.107 11.41-7.107" opacity=".5"></path><line x1="308.169" x2="346.8" y1="478.069" y2="395.933" fill="none" stroke="#fff" stroke-linecap="round" stroke-linejoin="round" stroke-miterlimit="10" stroke-width="2" opacity=".46"></line><path fill="none" stroke="#fff" stroke-linecap="round" stroke-linejoin="round" stroke-miterlimit="10" stroke-width="2" d="
		M388.375,199.89c0,0,2-3.872,8-2.506" opacity=".46"></path><g><g><circle cx="236.766" cy="656.011" r="32" fill="#242424"></circle><circle cx="236.766" cy="656.011" r="32" fill="none" stroke="#151515" stroke-linecap="round" stroke-linejoin="round" stroke-miterlimit="10" stroke-width="4"></circle><path fill="#b7b7b7" d="M324.631,704.32l-56.926-36.968c-9.116-5.92-9.802-19.012-1.355-25.853
				l52.749-42.716l-9.238-11.407l-52.749,42.716c-8.447,6.841-21.111,3.448-25.006-6.7l-24.324-63.367l-13.704,5.26l24.324,63.367
				c3.895,10.148-3.245,21.143-14.1,21.712l-67.783,3.552l0.768,14.659l67.783-3.552c10.855-0.569,19.105,9.62,16.292,20.119
				l-17.568,65.563l14.179,3.799l17.568-65.563c2.813-10.5,15.053-15.198,24.169-9.278l56.926,36.968L324.631,704.32z"></path><path fill="#a9a8a9" d="M208.694,747.876l16.533-61.699c1.622-6.055,0.365-12.378-3.448-17.349
				c-3.818-4.976-9.593-7.829-15.842-7.829c-0.355,0-0.714,0.009-1.075,0.028l-63.789,3.343l-0.35-6.67l63.789-3.343
				c6.467-0.339,12.2-3.648,15.727-9.08c3.527-5.431,4.219-12.014,1.898-18.06l-22.891-59.633l6.235-2.394l22.891,59.633
				c2.994,7.8,10.338,12.839,18.71,12.839c4.604,0,8.942-1.543,12.548-4.463l49.641-40.198l4.203,5.19l-49.641,40.198
				c-5.033,4.076-7.725,10.122-7.386,16.59c0.339,6.467,3.648,12.199,9.08,15.726l53.571,34.789l-3.638,5.603l-53.57-34.789
				c-3.261-2.118-7.016-3.237-10.86-3.237c-9.054,0-17.011,6.1-19.351,14.834l-16.532,61.699L208.694,747.876z"></path><path fill="none" stroke="#151515" stroke-linecap="round" stroke-linejoin="round" stroke-miterlimit="10" stroke-width="4" d="
				M324.631,704.32l-56.926-36.968c-9.116-5.92-9.802-19.012-1.355-25.853l52.749-42.716l-9.238-11.407l-52.749,42.716
				c-8.447,6.841-21.111,3.448-25.006-6.7l-24.324-63.367l-13.704,5.26l24.324,63.367c3.895,10.148-3.245,21.143-14.1,21.712
				l-67.783,3.552l0.768,14.659l67.783-3.552c10.855-0.569,19.105,9.62,16.292,20.119l-17.568,65.563l14.179,3.799l17.568-65.563
				c2.813-10.5,15.053-15.198,24.169-9.278l56.926,36.968L324.631,704.32z"></path><path fill="#242424" d="M267.307,542.032c-62.848-16.84-127.68,20.59-144.52,83.439
				s20.59,127.68,83.439,144.52s127.68-20.59,144.52-83.439C367.586,623.704,330.155,558.872,267.307,542.032z M210.884,752.604
				c-53.347-14.294-85.005-69.128-70.711-122.474c14.294-53.347,69.128-85.005,122.474-70.711s85.005,69.128,70.711,122.474
				C319.065,735.24,264.231,766.898,210.884,752.604z"></path><path fill="#191919" d="M267.307,542.032c-62.848-16.84-127.68,20.59-144.52,83.439
				c-16.84,62.848,20.59,127.68,83.439,144.52c62.848,16.84,127.68-20.59,144.52-83.439
				C367.586,623.704,330.155,558.872,267.307,542.032z M343.018,684.481c-12.865,48.012-56.568,81.543-106.278,81.543
				c-9.559,0-19.128-1.266-28.444-3.762c-28.333-7.592-52.036-25.803-66.745-51.279c-14.709-25.476-18.628-55.109-11.037-83.442
				c12.865-48.011,56.568-81.543,106.279-81.543c9.558,0,19.128,1.266,28.443,3.762c28.332,7.591,52.036,25.803,66.745,51.279
				S350.61,656.149,343.018,684.481z" opacity=".92"></path><circle cx="236.766" cy="656.011" r="100" fill="none" stroke="#151515" stroke-linecap="round" stroke-linejoin="round" stroke-miterlimit="10" stroke-width="4"></circle><path fill="none" stroke="#151515" stroke-linecap="round" stroke-linejoin="round" stroke-miterlimit="10" stroke-width="4" d="
				M267.307,542.032c-62.848-16.84-127.68,20.59-144.52,83.439s20.59,127.68,83.439,144.52s127.68-20.59,144.52-83.439
				C367.586,623.704,330.155,558.872,267.307,542.032z M210.884,752.604c-53.347-14.294-85.005-69.128-70.711-122.474
				c14.294-53.347,69.128-85.005,122.474-70.711s85.005,69.128,70.711,122.474C319.065,735.24,264.231,766.898,210.884,752.604z"></path><circle cx="236.766" cy="656.011" r="118" fill="none" stroke="#151515" stroke-linecap="round" stroke-linejoin="round" stroke-miterlimit="10" stroke-width="4"></circle><circle cx="236.766" cy="656.011" r="118" fill="none" stroke="#151515" stroke-linecap="round" stroke-linejoin="round" stroke-miterlimit="10" stroke-width="6"></circle><path fill="#a9a8a9" d="M262.648,559.419c-53.347-14.294-108.18,17.364-122.474,70.711
				c-14.294,53.347,17.364,108.18,70.711,122.474c53.347,14.294,108.18-17.364,122.474-70.711
				C347.653,628.547,315.995,573.713,262.648,559.419z M326.597,680.082c-13.272,49.533-64.368,79.033-113.901,65.761
				s-79.033-64.368-65.761-113.901s64.368-79.033,113.901-65.761C310.369,579.453,339.87,630.548,326.597,680.082z"></path><path fill="none" stroke="#151515" stroke-linecap="round" stroke-linejoin="round" stroke-miterlimit="10" stroke-width="4" d="
				M262.648,559.419c-53.347-14.294-108.18,17.364-122.474,70.711c-14.294,53.347,17.364,108.18,70.711,122.474
				c53.347,14.294,108.18-17.364,122.474-70.711C347.653,628.547,315.995,573.713,262.648,559.419z M326.597,680.082
				c-13.272,49.533-64.368,79.033-113.901,65.761s-79.033-64.368-65.761-113.901s64.368-79.033,113.901-65.761
				C310.369,579.453,339.87,630.548,326.597,680.082z"></path><circle cx="236.766" cy="656.011" r="17.853" fill="#242424"></circle><circle cx="236.766" cy="656.011" r="17.853" fill="none" stroke="#151515" stroke-linecap="round" stroke-linejoin="round" stroke-miterlimit="10" stroke-width="3"></circle><path fill="#191919" d="M248.706,659.218c-0.723-4.229,0.799-8.321,3.699-11.063
				c-2.168-4.303-6.074-7.707-11.095-9.052c-1.311-0.351-2.625-0.528-3.925-0.574c-0.039,0.114-0.066,0.23-0.108,0.344
				c-2.276,6.153-8.933,9.396-15.13,7.533c-1.002,1.524-1.79,3.224-2.288,5.082c-1.195,4.461-0.54,8.973,1.472,12.751
				c0.116-0.023,0.228-0.057,0.345-0.077c6.465-1.105,12.601,3.037,14.088,9.333c6.411,0.377,12.505-2.81,15.866-8.191
				C250.159,663.64,249.108,661.569,248.706,659.218z" opacity=".92"></path><circle cx="236.766" cy="656.011" r="5.674" fill="#151515"></circle><circle cx="236.766" cy="656.011" r="5.674" fill="none" stroke="#151515" stroke-linecap="round" stroke-linejoin="round" stroke-miterlimit="10" stroke-width="4"></circle><path fill="none" stroke="#151515" stroke-linecap="round" stroke-linejoin="round" stroke-miterlimit="10" stroke-width="3" d="
				M248.706,659.218c-0.723-4.229,0.799-8.321,3.699-11.063c-2.168-4.303-6.074-7.707-11.095-9.052
				c-1.311-0.351-2.625-0.528-3.925-0.574c-0.039,0.114-0.066,0.23-0.108,0.344c-2.276,6.153-8.933,9.396-15.13,7.533
				c-1.002,1.524-1.79,3.224-2.288,5.082c-1.195,4.461-0.54,8.973,1.472,12.751c0.116-0.023,0.228-0.057,0.345-0.077
				c6.465-1.105,12.601,3.037,14.088,9.333c6.411,0.377,12.505-2.81,15.866-8.191C250.159,663.64,249.108,661.569,248.706,659.218z"></path></g><path fill="none" stroke="#fff" stroke-linecap="round" stroke-linejoin="round" stroke-miterlimit="10" stroke-width="2" d="M188.076 557.402c2.918-1.445 5.905-2.763 8.953-3.949M130.515 627.541c6.985-26.069 23.063-47.869 44.257-62.351" opacity=".67"></path></g><g><g><circle cx="785.544" cy="664.011" r="32" fill="#242424"></circle><circle cx="785.544" cy="664.011" r="32" fill="none" stroke="#151515" stroke-linecap="round" stroke-linejoin="round" stroke-miterlimit="10" stroke-width="4"></circle><path fill="#b7b7b7" d="M885.299,674.148l-66.845-11.786c-10.705-1.888-16.452-13.671-11.349-23.268
				l31.866-59.931l-12.961-6.891l-31.866,59.931c-5.103,9.598-18.086,11.422-25.637,3.603l-47.15-48.826l-10.559,10.197
				l47.151,48.826c7.551,7.819,5.274,20.73-4.496,25.495l-61.006,29.755l6.435,13.193l61.006-29.755
				c9.77-4.765,21.345,1.39,22.858,12.154l9.447,67.216l14.536-2.043l-9.447-67.216c-1.513-10.764,7.918-19.871,18.623-17.984
				l66.845,11.786L885.299,674.148z"></path><path fill="#a9a8a9" d="M795.597,759.543l-8.89-63.255c-0.79-5.622-3.793-10.483-8.457-13.688
				c-4.627-3.179-10.388-4.286-15.806-3.035c-1.478,0.341-2.927,0.856-4.309,1.53l-57.412,28.002l-2.927-6.002l57.411-28.002
				c5.821-2.838,9.805-8.125,10.929-14.502c1.124-6.378-0.81-12.708-5.309-17.367l-44.372-45.948l4.805-4.639l44.371,45.948
				c4.923,5.097,11.99,7.187,18.904,5.591c5.633-1.301,10.422-4.981,13.141-10.095l29.988-56.399l5.898,3.136l-29.988,56.399
				c-3.041,5.718-3.156,12.336-0.317,18.157c2.839,5.82,8.126,9.804,14.503,10.929l62.905,11.092l-1.16,6.577L816.6,672.879
				c-2.681-0.473-5.365-0.407-7.977,0.196c-10.179,2.35-16.757,11.93-15.302,22.283l8.89,63.255L795.597,759.543z"></path><path fill="none" stroke="#151515" stroke-linecap="round" stroke-linejoin="round" stroke-miterlimit="10" stroke-width="4" d="
				M885.299,674.148l-66.845-11.786c-10.705-1.888-16.452-13.671-11.349-23.268l31.866-59.931l-12.961-6.891l-31.866,59.931
				c-5.103,9.598-18.086,11.422-25.637,3.603l-47.15-48.826l-10.559,10.197l47.151,48.826c7.551,7.819,5.274,20.73-4.496,25.495
				l-61.006,29.755l6.435,13.193l61.006-29.755c9.77-4.765,21.345,1.39,22.858,12.154l9.447,67.216l14.536-2.043l-9.447-67.216
				c-1.513-10.764,7.918-19.871,18.623-17.984l66.845,11.786L885.299,674.148z"></path><path fill="#242424" d="M769.122,547.16c-64.432,9.055-109.485,68.842-100.429,133.274
				s68.842,109.485,133.274,100.429s109.485-68.842,100.429-133.274S833.554,538.104,769.122,547.16z M799.461,763.038
				c-54.691,7.686-105.258-30.419-112.944-85.109c-7.686-54.691,30.419-105.258,85.109-112.944
				c54.691-7.686,105.258,30.418,112.944,85.109C892.257,704.785,854.152,755.352,799.461,763.038z"></path><path fill="#191919" d="M769.122,547.16c-64.432,9.055-109.485,68.842-100.429,133.274
				c9.055,64.432,68.842,109.485,133.274,100.429s109.484-68.842,100.429-133.274C893.34,583.157,833.554,538.104,769.122,547.16z
				 M894.474,648.702c6.918,49.222-20.21,97.164-65.968,116.587c-8.799,3.735-18.102,6.309-27.652,7.651
				c-29.047,4.082-57.981-3.419-81.476-21.123c-23.494-17.703-38.68-43.45-42.763-72.497c-6.917-49.221,20.21-97.164,65.969-116.587
				c8.798-3.735,18.102-6.309,27.652-7.651c29.046-4.083,57.981,3.42,81.475,21.124C875.205,593.91,890.392,619.656,894.474,648.702
				z" opacity=".92"></path><circle cx="785.544" cy="664.011" r="100" fill="none" stroke="#151515" stroke-linecap="round" stroke-linejoin="round" stroke-miterlimit="10" stroke-width="4"></circle><path fill="none" stroke="#151515" stroke-linecap="round" stroke-linejoin="round" stroke-miterlimit="10" stroke-width="4" d="
				M769.122,547.16c-64.432,9.055-109.485,68.842-100.429,133.274s68.842,109.485,133.274,100.429s109.485-68.842,100.429-133.274
				S833.554,538.104,769.122,547.16z M799.461,763.038c-54.691,7.686-105.258-30.419-112.944-85.109
				c-7.686-54.691,30.419-105.258,85.109-112.944c54.691-7.686,105.258,30.418,112.944,85.109
				C892.257,704.785,854.152,755.352,799.461,763.038z"></path><circle cx="785.544" cy="664.011" r="118" fill="none" stroke="#151515" stroke-linecap="round" stroke-linejoin="round" stroke-miterlimit="10" stroke-width="4"></circle><circle cx="785.544" cy="664.011" r="118" fill="none" stroke="#151515" stroke-linecap="round" stroke-linejoin="round" stroke-miterlimit="10" stroke-width="6"></circle><path fill="#a9a8a9" d="M771.627,564.985c-54.691,7.686-92.796,58.253-85.109,112.944
				c7.686,54.691,58.253,92.796,112.944,85.109s92.796-58.253,85.109-112.944C876.885,595.403,826.318,557.298,771.627,564.985z
				 M877.639,651.068c7.137,50.782-28.371,97.901-79.152,105.038c-50.781,7.137-97.901-28.37-105.038-79.152
				c-7.137-50.781,28.371-97.901,79.152-105.038C823.382,564.78,870.502,600.287,877.639,651.068z"></path><path fill="none" stroke="#151515" stroke-linecap="round" stroke-linejoin="round" stroke-miterlimit="10" stroke-width="4" d="
				M771.627,564.985c-54.691,7.686-92.796,58.253-85.109,112.944c7.686,54.691,58.253,92.796,112.944,85.109
				s92.796-58.253,85.109-112.944C876.885,595.403,826.318,557.298,771.627,564.985z M877.639,651.068
				c7.137,50.782-28.371,97.901-79.152,105.038c-50.781,7.137-97.901-28.37-105.038-79.152
				c-7.137-50.781,28.371-97.901,79.152-105.038C823.382,564.78,870.502,600.287,877.639,651.068z"></path><circle cx="785.544" cy="664.011" r="17.853" fill="#242424"></circle><circle cx="785.544" cy="664.011" r="17.853" fill="none" stroke="#151515" stroke-linecap="round" stroke-linejoin="round" stroke-miterlimit="10" stroke-width="3"></circle><path fill="#191919" d="M797.788,662.298c-2.318-3.611-2.516-7.972-0.918-11.629
				c-3.677-3.114-8.603-4.721-13.75-3.997c-1.344,0.189-2.622,0.54-3.838,1.005c0.009,0.12,0.029,0.237,0.035,0.359
				c0.309,6.553-4.551,12.139-10.984,12.846c-0.326,1.794-0.388,3.667-0.12,5.572c0.643,4.573,3.009,8.47,6.337,11.163
				c0.098-0.067,0.187-0.141,0.288-0.206c5.52-3.543,12.786-2.128,16.615,3.087c6.049-2.158,10.413-7.473,11.404-13.74
				C800.853,665.801,799.076,664.305,797.788,662.298z" opacity=".92"></path><circle cx="785.544" cy="664.011" r="5.674" fill="#151515"></circle><circle cx="785.544" cy="664.011" r="5.674" fill="none" stroke="#151515" stroke-linecap="round" stroke-linejoin="round" stroke-miterlimit="10" stroke-width="4"></circle><path fill="none" stroke="#151515" stroke-linecap="round" stroke-linejoin="round" stroke-miterlimit="10" stroke-width="3" d="
				M797.788,662.298c-2.318-3.611-2.516-7.972-0.918-11.629c-3.677-3.114-8.603-4.721-13.75-3.997
				c-1.344,0.189-2.622,0.54-3.838,1.005c0.009,0.12,0.029,0.237,0.035,0.359c0.309,6.553-4.551,12.139-10.984,12.846
				c-0.326,1.794-0.388,3.667-0.12,5.572c0.643,4.573,3.009,8.47,6.337,11.163c0.098-0.067,0.187-0.141,0.288-0.206
				c5.52-3.543,12.786-2.128,16.615,3.087c6.049-2.158,10.413-7.473,11.404-13.74C800.853,665.801,799.076,664.305,797.788,662.298z
				"></path></g><path fill="none" stroke="#fff" stroke-linecap="round" stroke-linejoin="round" stroke-miterlimit="10" stroke-width="2" d="M792.662 554.242c.823.054 1.647.116 2.47.188 4.352.381 8.643 1.011 12.859 1.883M705.882 588.213c15.814-16.627 36.816-28.357 60.585-32.548" opacity=".67"></path></g><path fill="none" stroke="#fff" stroke-linecap="round" stroke-linejoin="round" stroke-miterlimit="10" stroke-width="2" d="M535 583.866c0 0-4.25 12.301-6.125 27.634M527.5 619.333c0 0-.923 14.409-.923 17.038" opacity=".46"></path></g></svg>